<svg xmlns="http://www.w3.org/2000/svg" x="0px" y="0px" width="300px" height="300px" viewBox="0 0 300 300">
<ellipse fill="#f89e1b" cx="125" cy="160" rx="10" ry="10"></ellipse>
<path fill="#fff" d="M176.5,109c0,0,0.7,8.8,0.8,11c0.4,10.5,6.3,17.6,16.2,16.1c8.6-1.2,12.6-11.5,10.4-20
c-3.7-14.5-14.7-25.6-38.2-28c-7.7-0.8-15.4-0.5-22.9,1.1c-1.1,0.2-2.1,0.9-2.7,1.8c-3.7,5.7-6,12.3-7.4,17.7
c-0.5,1.8,1.5,3.2,3,2.1c2.3-1.6,4.9-3.1,7.6-4.4c1.1-0.5,2-1.4,2.4-2.6c2.1-6.2,8-10.7,15-10.7h0
C169.5,93.2,176.2,100.8,176.5,109z"></path>
<path fill="#fff" d="M205.6,188.6c-0.9-0.5-2-0.6-3-0.3c-4.1,1.2-6.9,7.1-8.7,10.6c-2.7,5-5.5,9.4-10.7,12.1
c-2.1,1-4.5,1.9-6.8,2.1c6.5-0.4,12.4-2,18-5.3c4.9-2.9,10.2-7.1,12.4-12.6c0.4-1.1,0.7-2.3,0.6-3.5
C207.2,190.4,206.6,189.2,205.6,188.6z"></path>
<path fill="#fff" d="M96.4,153.2c-1.7-1.3-4.3,0-4.1,2.2c0.2,2.7,0.6,5.4,1.1,8c2.9,14,10.9,28,22.6,36.5
c0.2,0.2,0.5,0.3,0.7,0.5c1.8,1.3,4.2-0.2,4.1-2.4C118.9,175.3,106.8,161.2,96.4,153.2z"></path>
<path fill="#fff" d="M144.9,197.2v-17c0-1.4-1.9-2-2.7-0.8c-5.4,8.2-7.7,17.5-8.5,25.8c-0.2,2.1,1.2,4,3.2,4.6
c7.7,2.2,15.8,3.1,23.8,3.1C152,213,144.9,205.9,144.9,197.2z"></path>
<path fill="#fff" d="M94,146.1c3.6,2.3,7.6,5.4,11.6,9.3c1.8,1.8,5,0.9,5.5-1.6c0.8-4,2-8.8,3.8-13.7l-0.1,0
c0-0.2,2.1-13.4-1.6-29.6c-0.6-2.5-3.8-3.4-5.6-1.5c-0.7,0.8-1.4,1.5-2,2.3c-7.3,9-11.7,20.2-13.1,31.7
C92.4,144.3,93,145.5,94,146.1z"></path>
<path fill="#fff" d="M119.5,122.7c0.2,1.9,2.6,2.6,3.7,1c0.9-1.2,1.8-2.5,2.8-3.6c0.3-0.3,0.4-0.7,0.5-1.1
c0.3-3.4,1.7-13.1,6-22.9c0.8-1.7-1-3.5-2.7-2.7c-4.7,2-9.2,4.5-13.3,7.6c-0.7,0.5-1,1.4-0.7,2.3
C117.9,110.3,119,116.9,119.5,122.7z"></path>
<path fill="#fff" d="M140.6,113c-14,8.6-20.7,23.6-23.9,35.5c2.2-1.6,5-2.5,7.9-2.5c7.6,0,13.7,6.1,13.7,13.7
c0,7.6-6.1,13.7-13.7,13.7c-2.6,0-5-0.7-7.1-2c4.7,8.8,7.9,19.7,7.8,33.2c0,0.5,0.3,1,0.8,1.2l1.9,0.9c0.7,0.3,1.2-0.1,1.3-0.8
c0.9-11.6,4.6-25.1,14.8-35.9c0.5-0.5,0.8-1.2,0.8-2v-52.7C144.9,113.2,142.5,111.8,140.6,113z"></path>
</svg>