<svg  xmlns="http://www.w3.org/2000/svg" x="0px" y="0px" width="500px" height="300px" viewBox="0 0 500 300">
<g id="crocus">
<path fill="#fff" d="M19.7,112.5c-2.4-1.9-5.9,0-5.7,3c0.3,3.7,0.8,7.4,1.6,11.1c4.1,19.3,15.1,38.8,31.3,50.5
c0.3,0.2,0.7,0.5,1,0.7c2.5,1.8,5.8-0.2,5.6-3.2C50.9,143.2,34,123.6,19.7,112.5z"/>
<path fill="#fff" d="M86.8,173.5v-23.5c0-2-2.6-2.7-3.7-1.1c-7.4,11.4-10.6,24.2-11.7,35.8c-0.3,2.9,1.6,5.5,4.4,6.3
c10.6,3,21.8,4.3,32.9,4.3C96.7,195.4,86.8,185.6,86.8,173.5z"/>
<path fill="#fff" d="M16.3,102.8c4.9,3.2,10.5,7.4,16,12.9c2.5,2.5,6.8,1.3,7.5-2.3c1.1-5.6,2.8-12.1,5.2-18.9H45
c0-0.3,2.9-18.5-2.2-41c-0.8-3.5-5.3-4.7-7.7-2c-0.9,1.1-1.9,2.1-2.8,3.2c-10.1,12.5-16.2,28-18,44 C14.1,100.3,14.9,101.9,16.3,102.8z"/>
<path fill="#fff" d="M51.6,70.3c0.2,2.7,3.6,3.6,5.2,1.4c1.2-1.7,2.5-3.4,3.8-5c0.4-0.4,0.6-0.9,0.6-1.5
c0.5-4.7,2.3-18.2,8.3-31.7c1.1-2.4-1.3-4.8-3.7-3.8c-6.5,2.8-12.7,6.2-18.3,10.5c-1,0.7-1.3,2-1,3.1C49.5,53.2,51,62.4,51.6,70.3z"/>
<path fill="#fff" d="M130.5,51.5c0,0,0.9,12.2,1.1,15.2c0.6,14.5,8.7,24.4,22.4,22.4c11.9-1.7,17.4-15.9,14.4-27.7
c-5.1-20-20.3-35.4-52.8-38.8c-10.6-1.1-21.3-0.7-31.7,1.5c-1.5,0.3-2.9,1.2-3.7,2.5c-5.1,7.9-8.3,16.9-10.2,24.6
c-0.6,2.5,2.1,4.4,4.2,2.9c3.2-2.3,6.7-4.3,10.5-6c1.6-0.7,2.8-2,3.3-3.6c2.9-8.6,11.1-14.8,20.7-14.8l0,0 C120.8,29.5,130.1,40,130.5,51.5z"/>
<path fill="#fff" d="M86.8,133.2V60.4c0-3.1-3.4-5-6-3.4c-19.3,11.8-28.7,32.7-33.1,49.1c3.1-2.2,6.9-3.5,11-3.5
c10.5,0,19,8.5,19,19s-8.5,19-19,19c-3.6,0-6.9-1-9.7-2.7c6.5,12.1,10.9,27.4,10.8,46c0,0.7,0.5,1.4,1.1,1.7l2.7,1.2
c0.9,0.4,1.7-0.1,1.8-1.1c1.3-16.1,6.4-34.8,20.4-49.6C86.4,135.2,86.8,134.3,86.8,133.2z"/>
<path fill="#fff" d="M422.8,187.9c-10.9,0-17.3-7-21.1-16.3c0,0-10.6,7.1-3.8,17.2c3.5,5.2,10.8,7,20.4,7
c14.8,0,32.4-10,32.4-27.1c0-12.4-8.3-17.9-24-25.3c-10.2-4.6-15.4-8.2-15.4-15.7c0-7,4.9-11.4,11.1-11.4c6.8,0,11.3,2.8,14.6,7.5
l3.8-5.9c1.7-2.6,0.2-6.1-2.9-6.6c-3.2-0.6-7.1-1.1-11.5-1.1c-17.7,0-29.3,10.3-29.3,23.9c0,13.4,10.7,19.3,23.5,25.5
c10.1,4.8,14.6,9,14.6,16.7C435.2,183.3,429.8,187.9,422.8,187.9z"/>
<path fill="#fff" d="M205.2,195.7c2.4,0.1,4.8-0.2,7.1-0.7c6.2-1.1,12.1-3.7,17.1-7.4c20.8-15.4,22.2-53.3,1.7-68.9
c-3.2,3.6-6.4,7.5-9.2,11.4c2.4,5.2,4,11.7,4.6,18.9l0,0c1.9,16.2-3.5,45-24,39.3c-0.6-0.2-1-0.3-1.8-0.6
c-13.9-5.1-18.1-25.2-17.9-39.3l0,0c0-2.9,0.2-6,0.7-8.8c0.2-0.8,0.2-1.8,0.5-2.5c0.7-3.6,1.9-7.1,3.6-10.3c0,0,0-0.1,0.1-0.1
c0.3-0.6,0.6-1.1,1-1.6c0,0,0-0.1,0.1-0.1c0.7-1,1.4-2,2.2-2.8c0,0,0,0,0-0.1c0.8-0.8,1.6-1.6,2.5-2.3l0,0c0.9-0.7,1.8-1.2,2.7-1.7
c8.6-4.2,18.1-1,23.2,6.9c2.5-3.4,4.7-6.3,7.5-9.4c-10.3-6.4-24-7.6-36-2.7l0,0c-1.7,0.7-3.6,1.5-5.2,2.4c0,0-0.1,0-0.1,0.1
c-0.8,0.4-1.5,0.9-2.3,1.4c-0.1,0-0.1,0.1-0.2,0.1c-12.5,8.2-19.7,22.5-19.3,37.5l0,0l0,0l0,0c0,2.9,0.3,5.9,0.9,8.7
c-11.6,9.6-13,31.1-31.1,32c13.4-1.5,27.1-9.2,35.6-19.8C176.4,187.9,189.5,195.5,205.2,195.7z"/>
<path fill="#fff" d="M379.9,113.5c-4.5,1.9-7.8,5.9-7.8,10.8v55.9c-3.9,2.2-8,3.3-12.1,3.3c-8,0-16-4.5-16-20l0.6-53.5
c0,0-4,1.5-8.5,3.3c-5,2-8.3,6.7-8.3,12l0.1,42.8c0,19.4,10.3,27.5,23.2,27.5c8.3,0,14.3-0.8,21.1-6.5v6.1h7.3c6.4,0,9-4,9-9.9
v-75.4C385.2,111.3,383.1,112.1,379.9,113.5z"/>
<path fill="#fff" d="M318.8,180.6c-1.4-2.8-4.9-3.8-7.6-2.2c-4.8,2.9-9.3,3.8-14.4,3.8c-10.2,0-27.9-8.4-27.7-33.9
c0-19.3,10.3-29.1,21.6-29.1c6.3,0,12.6,2.6,18.7,8.1c1.8,1.5,2.6,1.9,3.6,1.9c2.2,0,6.9-4.1,6.9-8.7c0-2.2-0.5-3.6-3-5.6
c-2.9-2.4-8.9-4.9-17-4.9c-7.4,0-18.5,2.8-28.8,10.7c-12.2,9.3-18.6,21.6-18.6,36.1c0,19.9,14,39,37.9,39 C300,195.7,310.8,189.5,318.8,180.6L318.8,180.6z"/>
<ellipse fill="#f89e1b" cx="58.7" cy="121.6" rx="13.7" ry="13.7"/>
<path fill="#f89e1b" d="M141.2,118.9c-4.2,5.2-6.4,11.7-6.4,18.4v1.9c3.9-9,10.3-14.1,14-14.1c3.3,0,5.5,2,8.4,4.8
c1.4,1.3,3,1.6,5,0.5c3.3-1.8,6.8-6,6.8-11.1c0-4.9-4.1-9.2-10.9-9.2C151.9,110,146.4,112.7,141.2,118.9z"/>
<path fill="#f89e1b" d="M114.5,123.9v71.5h8.2c4.4,0,8-3.6,8-8.1v-77.2c-2.8,1.2-5.6,2.2-8.4,3.1 C117.7,114.6,114.5,119,114.5,123.9z"/>
</g>
<g id="origin">
<path fill="#fff" d="M355.7,213.2c-3.5,3,1.9,8.3,5.1,5C364.4,215.2,359.1,209.8,355.7,213.2z M429.6,213.5
c-3.2,2.8,1.8,7.8,4.8,4.6C437.7,215.3,432.7,210.4,429.6,213.5z M496,228.2c-41.2,25.5-11-19.5-45.6,10.5
c1.8-3.9,7.1-10.2,9.3-14.5c-2-2-3.4,3.1-4.7,4.2c-12.8,7.8-50.4,28.2-28.5-3.3c-1.5-2-3.3,2-4.3,3.3c-7.7,4.3-19.7,10.6-28.3,13.4
c0.1-1.8,18.1-29.1,10.9-24l0,0c-3.6,3.1-8.1,5.9-11.3,7.7c-6.3-4.2-16.2,5.5-22.5,8c-17.2,9.4-36.1,16.6-18.8-8.8
c-2.2-1.6-3.1,2.8-4.8,3.9c-2.2,1.5-24.6,18.8-24.7,14.5c1.7-7.7,7.8-10.5-0.5-17.5c12.9-10.6-5-9.5-1.8-0.2
c-7.2,4.3-22.5,18.1,0.8,1.3c6.1,5,3.2,8.4,0.4,14.2c-3.7,11.8,22.9-9.6,25.5-11.2c-14.7,25.4,19.6,7.4,29.2,1.8
c-1.4,5.2,13.1-2.7,14.9-3.6c1.5,0.7,2-0.8,2.9-1.6c3.4-1.7,6.8-4.1,9.9-6.3c-3.2,5-8.3,14.8-11.5,20.5c-0.7,1.4-1.2,2.1-1.3,2.2
c-11.9,4.5-24.4,10.2-33.1,19.3c-19.6,23.4-8,38.7,14.6,10.7c7.8-9,15.5-20.7,20.8-30.1c8.3-3.1,20.7-8.8,28-13.4
c-16.1,27.4,23.1,6,32.5,0.1c-0.9,2-10.3,12.8-4.3,11.1c4.5-3.1,11.1-10.8,16.8-11.8c1.8,0.6,2.2,4.3,3.3,5.6
C475.9,241.6,489.4,233.5,496,228.2z M322,224.5c-1-2.4,1.5-4.6,3.4-5.5C326.2,220.7,323.2,223.4,322,224.5z M391.5,226.7
c-1.7,1.1-4.2,2-6.1,2.9c-1.6,0.6-5.5,2.4-7.2,2.6c3.1-3.1,8.8-6.8,13.4-6.4C391.8,226.2,391.7,226.5,391.5,226.7z M382.6,257.1
c-46.3,67-44.2,2.4,7.9-12.9C388.9,247.4,386.2,251.7,382.6,257.1z"/>
<path fill="#f89e1b" d="M336.2,190.7c0,0-0.6-0.6-1.1-1c-3.1,1.4-6.5,3.1-9.8,4.4c17.6-22.4,33.7-48.7,41.4-75.9
C381,69.8,351.8,47.8,306,63c-50.3,16.9-111.2,65.7-105.4,124.2l0,0.4c0.6,0.2,1.2,0.4,1.8,0.6c-2.2-47.2,39.2-85.8,76.4-108.8
c23.4-12.7,55-28.5,78-10.8c23.3,26.4-4.5,76.7-20.3,102.6c-5.8,9.1-12.3,18-19,26.3c-5.1,2-10.7,4.1-16.7,6.1
c-23.3,7.5-49.4,14.3-73.8,9.3c13.1-30,51.4-54.5,51.2-88.4c-8,32.9-41.8,55.9-54.9,87.4c-9-2.8-15.6-8.2-19.2-16.3
c-0.4,0-1.2-0.1-1.6-0.1c3.7,8.6,10.5,14.6,20.4,17.6c-18.7,49.4,32.5,44.1,59.8,22.2c7-4.9,14-10.7,20.9-17.3
C314.2,209,322,194.8,336.2,190.7z M297.2,219.4c-11.8,11.2-24.6,21-38.7,26.9c-29,12-45.6-3.7-32.1-32.5
c29.8,5.9,61.8-4.1,89.5-14.5C310,206.5,303.8,213.2,297.2,219.4z"/>
<path fill="#f89e1b" d="M352.9,182.1c0,0,13.7-7.9,19.2-11.8v-1.8c-6.5,4.7-20.5,12.9-20.5,12.9S352.4,181.9,352.9,182.1z"/>
</g>
</svg>
